<svg id="Capa_1" data-name="Capa 1" xmlns="http://www.w3.org/2000/svg" viewBox="0 0 572.88 361.35"><defs><style>.cls-1,.cls-4{fill:#ffb7c5;}.cls-2{fill:#fff;}.cls-3{fill:#ff6584;}.cls-4{isolation:isolate;opacity:0.4;}.cls-5{fill:#3f3d56;}.cls-6{fill:#ccc;}.cls-7{fill:#f2f2f2;}</style></defs><path class="cls-1" d="M418,88c0,34.67-54.19,136.91-85.26,192.68a24.31,24.31,0,0,1-42.48,0C259.2,224.91,205,122.67,205,88c0-48.6,47.68-88,106.5-88S418,39.4,418,88Z"/><circle class="cls-2" cx="312.01" cy="87" r="58"/><circle class="cls-3" cx="69.98" cy="104.74" r="34.74"/><circle class="cls-4" cx="43.18" cy="132.43" r="19.99"/><ellipse class="cls-1" cx="311.51" cy="354.86" rx="84.09" ry="6.49"/><path class="cls-5" d="M510.77,235.53c-157.39-59-349.35-1.48-460.18,116.18-.63.66-1.26,1.33-1.87,2H47c.58-.67,1.18-1.34,1.77-2C161.93,225.1,351.34,174.64,510.77,235.53Z"/><path class="cls-5" d="M553.78,255.1a374.93,374.93,0,0,0-43-19.57A341.19,341.19,0,0,1,553.78,255.1Z"/><circle class="cls-4" cx="467.64" cy="174.32" r="21.92"/><path class="cls-5" d="M470.08,342.92c1.7,6.26,7.5,10.14,7.5,10.14s3.05-6.27,1.36-12.54-7.5-10.14-7.5-10.14S468.39,336.66,470.08,342.92Z"/><path class="cls-1" d="M472.57,341.58c4.65,4.52,5.22,11.48,5.22,11.48s-7-.38-11.62-4.91S461,336.67,461,336.67,467.92,337.05,472.57,341.58Z"/><path class="cls-5" d="M3.36,255.86v9.66l-.48.52V255.76Z"/><path class="cls-6" d="M34.14,351.71c-.14.23-.29.46-.44.69H2.88V256.34l.48-.48,4.09,4.65v-6.8h13v21.58L33.58,290.2l.12.14c.16.5.31,1,.46,1.5a0,0,0,0,0,0,0A175.48,175.48,0,0,1,39,311.05C41.87,326.34,41.44,340.36,34.14,351.71Z"/><rect class="cls-5" x="5.43" y="308.95" width="8.27" height="6.9"/><rect class="cls-5" x="5.43" y="321.36" width="8.27" height="6.9"/><path class="cls-5" d="M268.59,295.85,264.45,289l38.61-33.1c28.55-13.74,63-9.78,99.3,0v9.65L366.5,304.13l-41.37,8.27Z"/><path class="cls-6" d="M419.45,275.28c6.86-7.63,7.81-14.88,0-21.58h-13v6.81l-4.09-4.65L369.26,289l-5.52,5.51-6.89,27.58,12.41,30.34H432.7V290.34Z"/><path class="cls-7" d="M264.45,289H369.26v63.43H264.45C251.77,338.68,258.36,313.67,264.45,289Z"/><rect class="cls-5" x="332.72" y="308.95" width="22.07" height="19.31"/><rect class="cls-6" x="304.44" y="308.26" width="19.31" height="44.13"/><polygon class="cls-5" points="282.38 315.16 282.38 308.26 274.11 308.26 274.11 315.16 281.69 315.16 282.38 315.16"/><polygon class="cls-5" points="281.69 320.68 274.11 320.68 274.11 327.57 282.38 327.57 282.38 320.68 281.69 320.68"/><rect class="cls-5" x="287.9" y="308.26" width="8.27" height="6.9"/><rect class="cls-5" x="287.9" y="320.68" width="8.27" height="6.9"/><polygon class="cls-5" points="398.91 315.85 398.91 308.95 390.64 308.95 390.64 315.85 398.22 315.85 398.91 315.85"/><polygon class="cls-5" points="398.22 321.37 390.64 321.37 390.64 328.26 398.91 328.26 398.91 321.37 398.22 321.37"/><rect class="cls-5" x="404.43" y="308.95" width="8.27" height="6.9"/><rect class="cls-5" x="404.43" y="321.36" width="8.27" height="6.9"/><polygon class="cls-5" points="81.97 180.01 75.07 174.49 113.69 140.02 211.6 140.02 211.6 170.36 148.16 213.11 81.97 180.01"/><path class="cls-6" d="M229.45,159.36V140.7h-13v4.57L211.6,140l-31.72,34.47-12.41,8.28-19.25,140.6,29,29H244.7c10.33-52,18.53-105.39,0-176.52Z"/><path class="cls-7" d="M75.07,174.49H179.88v177.9H75.07C63.6,283.28,58,219.19,75.07,174.49Z"/><rect class="cls-6" x="115.75" y="308.95" width="19.31" height="43.44"/><polygon class="cls-5" points="95.07 321.37 95.07 314.47 86.79 314.47 86.79 321.37 94.38 321.37 95.07 321.37"/><polygon class="cls-5" points="94.38 326.88 86.79 326.88 86.79 333.78 95.07 333.78 95.07 326.88 94.38 326.88"/><rect class="cls-5" x="100.58" y="314.47" width="8.27" height="6.9"/><polygon class="cls-5" points="150.92 326.88 143.34 326.88 143.34 333.78 151.61 333.78 151.61 326.88 150.92 326.88"/><rect class="cls-5" x="157.13" y="314.47" width="8.27" height="6.9"/><rect class="cls-5" x="157.13" y="326.88" width="8.27" height="6.9"/><polygon class="cls-5" points="209.53 183.46 209.53 176.56 201.26 176.56 201.26 183.46 208.84 183.46 209.53 183.46"/><polygon class="cls-5" points="208.84 188.97 201.26 188.97 201.26 195.87 209.53 195.87 209.53 188.97 208.84 188.97"/><rect class="cls-5" x="215.05" y="176.56" width="8.27" height="6.9"/><rect class="cls-5" x="215.05" y="188.97" width="8.27" height="6.9"/><polygon class="cls-5" points="209.53 222.07 209.53 215.18 201.26 215.18 201.26 222.07 208.84 222.07 209.53 222.07"/><polygon class="cls-5" points="208.84 227.59 201.26 227.59 201.26 234.48 209.53 234.48 209.53 227.59 208.84 227.59"/><rect class="cls-5" x="215.05" y="215.18" width="8.27" height="6.9"/><rect class="cls-5" x="215.05" y="227.59" width="8.27" height="6.9"/><polygon class="cls-5" points="209.53 260.69 209.53 253.79 201.26 253.79 201.26 260.69 208.84 260.69 209.53 260.69"/><polygon class="cls-5" points="208.84 266.2 201.26 266.2 201.26 273.1 209.53 273.1 209.53 266.2 208.84 266.2"/><rect class="cls-5" x="215.05" y="253.79" width="8.27" height="6.9"/><rect class="cls-5" x="215.05" y="266.2" width="8.27" height="6.9"/><polygon class="cls-5" points="209.53 299.3 209.53 292.4 201.26 292.4 201.26 299.3 208.84 299.3 209.53 299.3"/><polygon class="cls-5" points="208.84 304.82 201.26 304.82 201.26 311.71 209.53 311.71 209.53 304.82 208.84 304.82"/><rect class="cls-5" x="215.05" y="292.4" width="8.27" height="6.9"/><rect class="cls-5" x="215.05" y="304.82" width="8.27" height="6.9"/><path class="cls-5" d="M86.79,183.46h80V200c-25.64-7.08-52.37-6.57-80,0Z"/><path class="cls-5" d="M86.79,216.55q37.46,11,80,0V233.1h-80Z"/><path class="cls-5" d="M86.79,249.65h80V266.2c-27.26-8.7-53.95-9.11-80,0Z"/><path class="cls-5" d="M86.79,282.75c26.09,10.05,52.77,9.64,80,0V299.3h-80Z"/><path class="cls-5" d="M516.68,254h56.2v27.08l-5,1.57-16.7,5.21L525,281.79l-26.17-6.06L485,272.53l-6.9-2.56C483.81,262.1,494.25,255.9,516.68,254Z"/><path class="cls-7" d="M572.88,270V352.4H478.07l-.08-.15h0a.8.8,0,0,0-.08-.16q-2.22-4.47-4-8.92c-9.95-25.08-8.87-49.49,4.14-73.19Z"/><rect class="cls-6" x="518.75" y="308.95" width="19.31" height="43.44"/><polygon class="cls-5" points="498.07 321.37 498.07 314.47 489.79 314.47 489.79 321.37 497.38 321.37 498.07 321.37"/><polygon class="cls-5" points="497.38 326.88 489.79 326.88 489.79 333.78 498.07 333.78 498.07 326.88 497.38 326.88"/><rect class="cls-5" x="503.58" y="314.47" width="8.27" height="6.9"/><rect class="cls-5" x="503.58" y="326.88" width="8.27" height="6.9"/><polygon class="cls-5" points="554.61 321.37 554.61 314.47 546.34 314.47 546.34 321.37 553.92 321.37 554.61 321.37"/><polygon class="cls-5" points="553.92 326.88 546.34 326.88 546.34 333.78 554.61 333.78 554.61 326.88 553.92 326.88"/><rect class="cls-5" x="560.13" y="314.47" width="8.27" height="6.9"/><rect class="cls-5" x="560.13" y="326.88" width="8.27" height="6.9"/><path class="cls-5" d="M498.79,222h11.89a44.2,44.2,0,0,1,44.2,44.2H498.79Z"/><path class="cls-5" d="M138.79,102h11.89a44.2,44.2,0,0,1,44.2,44.2H138.79Z"/><path class="cls-5" d="M328.79,213h11.89a44.2,44.2,0,0,1,44.2,44.2H328.79Z"/><rect class="cls-5" x="498.79" y="282.75" width="56.09" height="16.55"/><rect class="cls-5" x="2.88" y="351.71" width="570" height="2"/><rect class="cls-5" x="53.45" y="272.71" width="2" height="79"/><path class="cls-1" d="M73.91,282.77C74,310.4,54.6,332.88,54.6,332.88S29.71,310.1,34.83,283,56,233,54.14,232.84C54.14,232.84,73.78,255.15,73.91,282.77Z"/><rect class="cls-5" x="253.45" y="272.71" width="2" height="79"/><path class="cls-1" d="M273.91,282.77c1.8,27.57-19.31,50.11-19.31,50.11S235,310.58,234.83,283s19.31-50.11,19.31-50.11C252.24,240.42,272.45,260.47,273.91,282.77Z"/><polygon class="cls-5" points="125.51 144.29 212.39 140.04 248.83 170.46 242.39 176.28 184.68 174.98 125.51 144.29"/><path class="cls-5" d="M38.83,285.46l-4.68,4.23-.57.51-1.19,1.08-29.51-.66V255.76L0,255.16,2.39,255l.49.41,4.57,3.81,13,10.86L35,282.24Z"/><polygon class="cls-5" points="315.51 259.29 402.39 255.04 438.83 285.46 432.39 291.27 374.68 289.98 315.51 259.29"/></svg>